<svg xmlns="http://www.w3.org/2000/svg" width="16.5" height="16.5" viewBox="0 0 16.5 16.5">
  <g id="Solid" transform="translate(-24 -24)">
    <path id="Path_35" data-name="Path 35" d="M132.836,144.959l-3.219-3.219a.853.853,0,0,0-1.207,1.207l1.762,1.762h-9.319a.853.853,0,1,0,0,1.707h9.319l-1.762,1.762a.853.853,0,0,0,1.207,1.207l3.219-3.219A.853.853,0,0,0,132.836,144.959Z" transform="translate(-92.586 -113.312)" fill="#fff"/>
    <path id="Path_36" data-name="Path 36" d="M33.957,37.086a.853.853,0,0,0-.853.853v.853h-7.4V25.707h7.4v.853a.853.853,0,1,0,1.707,0V25.422A1.422,1.422,0,0,0,33.388,24H25.422A1.422,1.422,0,0,0,24,25.422V39.078A1.422,1.422,0,0,0,25.422,40.5h7.966a1.422,1.422,0,0,0,1.422-1.422V37.94A.853.853,0,0,0,33.957,37.086Z" fill="#fff"/>
  </g>
</svg>
