<svg id="message" xmlns="http://www.w3.org/2000/svg" xmlns:xlink="http://www.w3.org/1999/xlink" width="127.911" height="101.587" viewBox="0 0 127.911 101.587">
  <defs>
    <linearGradient id="linear-gradient" x1="0.844" y1="1.137" x2="0.387" y2="0.307" gradientUnits="objectBoundingBox">
      <stop offset="0" stop-color="#c6d1ff"/>
      <stop offset="0.583" stop-color="#e6d5f4"/>
      <stop offset="0.997" stop-color="#ffd9ec"/>
    </linearGradient>
    <linearGradient id="linear-gradient-2" x1="0.5" x2="0.5" y2="1" gradientUnits="objectBoundingBox">
      <stop offset="0.003" stop-color="#ff7eb8" stop-opacity="0"/>
      <stop offset="1" stop-color="#ff7eb8" stop-opacity="0.6"/>
    </linearGradient>
  </defs>
  <g id="Group_117" data-name="Group 117" transform="translate(0 6.354)">
    <path id="Path_17" data-name="Path 17" d="M125.381,96.971C119.8,82.759,102.59,74.236,88.018,79.876c-16.634,6.438-11.119,32.9-26.228,38.245-8.162,2.89-20.226-7.906-28.472-9.561-15.195-3.05-28.95,7.671-32.337,22.518-3.456,15.147,2.087,35.378,18.729,39.489,19.824,4.9,30.15-12.923,46.78-18.04,17.066-5.251,36.041,7.151,50.169-7.938,10.438-11.147,14.254-33.544,8.723-47.618Z" transform="translate(0 -78.118)" fill="url(#linear-gradient)"/>
  </g>
  <g id="Group_128" data-name="Group 128" transform="translate(14.942 0)">
    <g id="Group_127" data-name="Group 127" transform="translate(0 4.718)">
      <g id="Group_119" data-name="Group 119" transform="translate(0 14.179)">
        <path id="Path_18" data-name="Path 18" d="M152.841,193.633H64.809a5,5,0,0,1-5-5V133.323a5,5,0,0,1,5-5h88.033a5,5,0,0,1,5,5v55.314A5,5,0,0,1,152.841,193.633Z" transform="translate(-59.812 -128.326)" fill="#9fb0fe"/>
        <g id="Group_118" data-name="Group 118" transform="translate(0 0.001)">
          <path id="Path_19" data-name="Path 19" d="M363.385,133.328v21.11a17.866,17.866,0,0,1-24.363-26.107h19.367A5,5,0,0,1,363.385,133.328Z" transform="translate(-265.358 -128.331)" fill="#8399fe"/>
          <path id="Path_20" data-name="Path 20" d="M157.837,133.328v6.3L113.39,173.769a7.5,7.5,0,0,1-9.134,0L59.81,139.626v-6.3a5,5,0,0,1,5-5H152.84A5,5,0,0,1,157.837,133.328Z" transform="translate(-59.81 -128.331)" fill="#8399fe"/>
          <path id="Path_21" data-name="Path 21" d="M110.347,222.158l47.491,36.481a5,5,0,0,1-5,5H64.809a5,5,0,0,1-5-5L107.3,222.158A2.5,2.5,0,0,1,110.347,222.158Z" transform="translate(-59.811 -198.33)" fill="#8399fe"/>
        </g>
        <path id="Path_22" data-name="Path 22" d="M221.731,234.132l-12.544,9.636a7.5,7.5,0,0,1-9.134,0l-12.544-9.636L203.1,222.158a2.5,2.5,0,0,1,3.043,0Z" transform="translate(-155.607 -198.328)" fill="#6583fe"/>
        <path id="Path_23" data-name="Path 23" d="M107.3,169.8,59.812,133.323a5,5,0,0,1,5-5h88.033a5,5,0,0,1,5,5L110.347,169.8A2.5,2.5,0,0,1,107.3,169.8Z" transform="translate(-59.812 -128.326)" fill="#b7c5ff"/>
      </g>
      <g id="Group_125" data-name="Group 125" transform="translate(37.281 64.805)">
        <path id="Path_24" data-name="Path 24" d="M343.09,339h-8.028a1.249,1.249,0,0,1-1.249-1.249V332.22a1.249,1.249,0,0,1,1.249-1.249h8.028a1.249,1.249,0,0,1,1.249,1.249v5.535A1.249,1.249,0,0,1,343.09,339Z" transform="translate(-302.641 -330.971)" fill="#02ffb3"/>
        <g id="Group_124" data-name="Group 124" transform="translate(0 0.443)">
          <g id="Group_121" data-name="Group 121" transform="translate(17.488)">
            <g id="Group_120" data-name="Group 120">
              <path id="Path_25" data-name="Path 25" d="M287.241,335.241h-6.953a1.249,1.249,0,1,1,0-2.5h6.953a1.249,1.249,0,0,1,0,2.5Z" transform="translate(-279.038 -332.743)" fill="#fff"/>
            </g>
          </g>
          <g id="Group_123" data-name="Group 123" transform="translate(0 5.092)">
            <g id="Group_122" data-name="Group 122">
              <path id="Path_26" data-name="Path 26" d="M234.728,355.623H210.287a1.249,1.249,0,1,1,0-2.5h24.441a1.249,1.249,0,0,1,0,2.5Z" transform="translate(-209.038 -353.125)" fill="#fff"/>
            </g>
          </g>
        </g>
      </g>
      <path id="Path_27" data-name="Path 27" d="M152.841,193.633H64.809a5,5,0,0,1-5-5V133.323a5,5,0,0,1,5-5h88.033a5,5,0,0,1,5,5v55.314A5,5,0,0,1,152.841,193.633Z" transform="translate(-59.812 -114.147)" fill="url(#linear-gradient-2)"/>
      <g id="Group_126" data-name="Group 126" transform="translate(65.805 0)">
        <circle id="Ellipse_6" data-name="Ellipse 6" cx="17.867" cy="17.867" r="17.867" transform="matrix(0.16, -0.987, 0.987, 0.16, 0, 35.269)" fill="#ff5ba8"/>
      </g>
      <path id="Path_28" data-name="Path 28" d="M373.812,123.994l2.55,6.093-2.55,6.093a1.249,1.249,0,0,0,1.643,1.631l15.394-6.575a1.249,1.249,0,0,0,0-2.3l-15.394-6.575A1.249,1.249,0,0,0,373.812,123.994Z" transform="translate(-295.291 -109.596)" fill="#fff"/>
      <path id="Path_29" data-name="Path 29" d="M384.545,141.4l-7.676,3.28,1.859-4.447-1.861-4.447,7.678,3.28A1.307,1.307,0,0,1,384.545,141.4Z" transform="translate(-297.658 -119.747)" fill="#ffdbed"/>
    </g>
    <path id="Path_30" data-name="Path 30" d="M319.955,59.927a3.621,3.621,0,1,1,2.561-1.059A3.61,3.61,0,0,1,319.955,59.927Zm0-4.744a1.124,1.124,0,1,0,.795.329A1.121,1.121,0,0,0,319.955,55.182Z" transform="translate(-252.248 -52.685)" fill="#00eca2"/>
    <path id="Path_31" data-name="Path 31" d="M207.665,437.571a3.621,3.621,0,1,1,2.561-1.059A3.612,3.612,0,0,1,207.665,437.571Zm0-4.744a1.124,1.124,0,1,0,.795.329A1.121,1.121,0,0,0,207.665,432.826Z" transform="translate(-168.011 -335.984)" fill="#00eca2"/>
    <path id="Path_32" data-name="Path 32" d="M276.776,79.919a1.245,1.245,0,0,1-.883-.366l-1.49-1.49-1.49,1.49a1.249,1.249,0,0,1-1.766-1.767l2.373-2.373a1.249,1.249,0,0,1,1.766,0l2.373,2.373a1.249,1.249,0,0,1-.883,2.132Z" transform="translate(-218.074 -69.461)" fill="#ff7eb8"/>
    <path id="Path_33" data-name="Path 33" d="M421.742,425.694a1.245,1.245,0,0,1-.883-.366l-1.49-1.49-1.49,1.49a1.249,1.249,0,1,1-1.766-1.766l2.373-2.373a1.249,1.249,0,0,1,1.766,0l2.373,2.373a1.249,1.249,0,0,1-.883,2.132Z" transform="translate(-326.824 -328.852)" fill="#ff7eb8"/>
    <path id="Path_34" data-name="Path 34" d="M160.88,430.444a1.245,1.245,0,0,1-.883-.366l-1.49-1.49-1.49,1.49a1.249,1.249,0,1,1-1.766-1.767l2.373-2.373a1.249,1.249,0,0,1,1.766,0l2.373,2.373a1.249,1.249,0,0,1-.883,2.132Z" transform="translate(-131.132 -332.416)" fill="#6583fe"/>
  </g>
</svg>
