<?xml version="1.0" encoding="utf-8"?>
<!-- Generator: Adobe Illustrator 24.3.0, SVG Export Plug-In . SVG Version: 6.00 Build 0)  -->
<svg version="1.1" id="Layer_1" xmlns="http://www.w3.org/2000/svg" xmlns:xlink="http://www.w3.org/1999/xlink" x="0px" y="0px"
	 viewBox="0 0 3000 2000" style="enable-background:new 0 0 3000 2000;" xml:space="preserve">
<style type="text/css">
	.st0{fill:#F9B384;}
	.st1{fill:#1F3C88;}
	.st2{fill:#E28B6D;}
	.st3{fill:#102048;}
	.st4{opacity:0.6;fill:#102048;}
	.st5{fill:#FFFFFF;}
	.st6{opacity:0.3;fill:#1F3C88;}
	.st7{fill:#708CD5;}
	.st8{opacity:0.6;fill:#E28B6D;}
	.st9{fill:#6F3428;}
	.st10{fill:#EE6F57;}
	.st11{fill:#FBC343;}
	.st12{opacity:0.3;fill:none;stroke:#6F3428;stroke-width:8;stroke-miterlimit:10;}
	.st13{opacity:0.4;fill:#FC8879;}
	.st14{opacity:0.6;fill:#6F3428;}
</style>
<g>
	<g>
		<g>
			<path class="st0" d="M1862.71,447.88c-19.19-3.63-37.12-35.69-43.35-47.98c-1.53-3.02-2.01-6.43-1.38-9.76l7.64-40.47
				c0,0,17.62,3,16.26,26.46c-0.14,2.43,0.36,4.86,1.23,7.14l6.75,17.65l19.94-15.44l-10.94-30.88c0,0-14.63,4.02-22.19,1.61
				c-15.51-4.95,4.82-17.05,11.26-18.33s20.58-6.43,27.02,4.5c6.43,10.94,10.29,17.37,10.29,17.37s7.08-24.44,2.25-79.12
				c-0.22-2.46,5.95-2.41,7.68-0.65c5.18,5.27,13.43,21.32,13.87,70.12c0,0,0.86-56.87,10.61-62.72c8.04-4.82,12.1,23.01,6.44,70.21
				c0,0,10.5-40.87,18.01-40.94c12.67-0.12,0.17,109.15-31.69,141.72L1862.71,447.88z"/>
			<path class="st0" d="M1922.86,431.16c-0.57,5.44-1.19,10.71-1.87,15.8v0.06c-2.27,18.13-5.1,34.32-8.38,48.2
				c-0.17,0.68-0.28,1.3-0.45,1.93c-9.69,39.71-11.44,59.13-44.52,53.92l-34.04-38.74l-0.34-0.4l-2.49-2.83l6.91-20.39l0.91-2.66
				l5.1-14.84l0.62-1.93l8.72-25.55l3.51-10.37L1922.86,431.16z"/>
		</g>
		<g>
			<path class="st1" d="M1290.44,1841.91l-8.67,27.08c-59.42,19.52-94.07,41.88-96.29,67.97h171.81l13.77-90.68
				C1336.27,1854.77,1308.39,1848.86,1290.44,1841.91z"/>
			<path class="st0" d="M1311.98,1774.58l-21.54,67.32c17.95,6.96,45.83,12.87,80.63,4.38l8.88-58.48L1311.98,1774.58z"/>
			<path class="st0" d="M1605.72,1838.9l5.04-68.57l-80.71,4.25l-4.41,63.21C1559.81,1848.69,1588.06,1844.42,1605.72,1838.9z"/>
			<path class="st1" d="M1702.81,1936.96c-2.22-26.09-32.57-61.83-99.12-70.33l2.04-27.72c-17.67,5.52-45.91,9.78-80.08-1.11
				l-6.92,99.16H1702.81z"/>
		</g>
		<polygon class="st0" points="1540.3,465.48 1442.94,466.16 1442.94,318.89 1537.36,318.89 1537.42,327.9 1537.87,374.57 
			1538.55,449.51 		"/>
		<path class="st2" d="M1537.87,381.65c-17.5,18.41-63.16-2.38-82.41-22.66l81.96-24.02L1537.87,381.65z"/>
		<path class="st0" d="M1560.47,284.91c-0.06,10.88-0.74,22.26-2.55,33.14c-4.76,29.68-17.33,55.34-46.33,56.13
			c-68.54,1.98-88.08-37.21-100.99-69.27c-12.91-32.12,8.04-109.32,8.04-109.32l88.7-8.78l48.71,39.93
			C1556.05,226.74,1560.75,253.87,1560.47,284.91z"/>
		<path class="st3" d="M1413.36,286.54c0,0,19.55-0.9,22.89-51.37c34.96,11.7,60.51,1.03,80.76-22.25
			c17.27,22.81,65.63,29.96,81.96-16.75c11.8-33.75-20.77-84.02-68.21-53.57c-46.49-23.49-117.01-21.88-137.3,35.74
			c0,0-70.54,32.52,4.15,104.14C1399.11,283.91,1413.36,286.54,1413.36,286.54z"/>
		<polygon class="st3" points="1682.99,994.77 1629.17,1808.57 1502.68,1808.57 1534.3,1018.89 1553.65,1009.92 		"/>
		<polygon class="st1" points="1353.52,883.42 1264.78,1808.57 1402.61,1808.57 1533.83,1040.13 1682.98,994.82 1689.59,830.56 
			1357.3,823 		"/>
		<path class="st4" d="M1373.3,885.44c75.28,27.02,251.91-3.86,288.58-41.5l-26.06-52.12l-290.51,38.61L1373.3,885.44z"/>
		<path class="st5" d="M1655.12,831.39c-2.44,1.02-4.93,2.1-7.48,3.06c-28.15,11.44-60.21,21.47-94.37,28.09
			c-20.39,4.02-41.63,6.74-63.27,7.76c-32.63,1.64-66.16-0.51-99.35-8.04l42.2-393.43l5.15-47.98c0,0,55.23,67.97,116.12-7.08
			L1655.12,831.39z"/>
		<path class="st6" d="M1490.01,870.3c-32.63,1.64-66.16-0.51-99.35-8.04l42.2-393.43l15.07-21.78
			C1485.14,537.56,1523.25,737.99,1490.01,870.3z"/>
		<path class="st7" d="M1442.97,405.27c41.96,178.14,59.22,361.45-2.6,565c-45.84,17.44-95.75,17.24-149.16,1.89l13.22-370.06
			L993.37,815.92l-18.88-116.59C1094.07,585,1300.8,412.28,1442.97,405.27z"/>
		<path class="st6" d="M1647.64,834.45c-28.15,11.44-60.21,21.47-94.37,28.09c-18.75-107.51-22.88-284.11-7.65-363.81
			L1647.64,834.45z"/>
		<path class="st8" d="M1912.61,495.22c-0.17,0.68-0.28,1.3-0.45,1.93c-9.69,39.71-11.44,59.13-44.52,53.92l-34.04-38.74l-0.34-0.4
			l4.42-23.22l0.91-2.66l5.1-14.84l0.62-1.93L1912.61,495.22z"/>
		<path class="st7" d="M1906.72,531.3c0,0-83.55,177.01-133.11,181.25c-48.05,4.12-70.8-42.48-70.8-42.48l33.98,258.68
			c-39.93,18.69-83.49,27.81-134.07,18.86c-44.92-145.85-61.9-334.44-65.24-544.47c36.36,2.27,108.38,5.37,134.17,21.95
			c46.26,29.74,103.37,135.94,103.37,135.94l66.55-90.63L1906.72,531.3z"/>
		<g>
			<path class="st9" d="M888.22,281.9c0,0,5.06-84.68,13.67-80.68c8.62,4,25.9,77.62,25.9,77.62l-18.48,29.82L888.22,281.9z"/>
			<path class="st10" d="M1142.48,1810.93l2.5,27.87c4.42,49.19-31.88,92.66-81.08,97.08l-7.16,0.64
				c-49.19,4.42-92.66-31.88-97.08-81.08l-2.5-27.87L1142.48,1810.93z"/>
			
				<rect x="896.16" y="467.1" transform="matrix(0.996 -0.0895 0.0895 0.996 -98.4486 93.1082)" class="st11" width="186.07" height="1354.87"/>
			
				<rect x="946.23" y="440.38" transform="matrix(0.996 -0.0895 0.0895 0.996 -88.613 91.777)" class="st12" width="66.08" height="1187.59"/>
			<polygon class="st3" points="1142.45,1810.95 957.18,1827.6 952.31,1773.22 948.91,1735.44 938.43,1619.33 1123.76,1602.68 
				1134.18,1718.79 1137.58,1756.57 			"/>
			
				<rect x="950.23" y="1727.04" transform="matrix(0.996 -0.0895 0.0895 0.996 -152.1137 100.4013)" class="st11" width="186.02" height="37.93"/>
			<path class="st10" d="M835.89,478.15l51.48-206.31c0,0,17.77,7.88,39.32-5.43l94.54,195.08L835.89,478.15z"/>
		</g>
		<path class="st0" d="M1423.61,278c-0.83-3.04-14.66-7.23-17.71-8.07c-4.71-1.3-9.85-1.94-14.44,0.13
			c-16.73,7.56-14.49,31.51-5.83,44.09c4.91,7.13,12.1,12.62,20.45,15.01c3.04,0.87,31.81,1.21,30.55-3.41
			C1436.63,325.74,1423.64,278.11,1423.61,278z"/>
		<path class="st0" d="M897.08,759.28c-4.35-13.64-18.65-21.3-32.18-16.63c-21.08,7.28-39.44,19.63-42.29,40.64
			c-2.59,19.13,6.98,80.24,49.72,88.09l-3.49-31.4c0,0,26.17-6.11,31.4-17.44C903.9,814.6,904.15,781.45,897.08,759.28z"/>
		<path class="st1" d="M1689.75,549.11c2.25,13.37,4.16,26.79,6,40.21c1.9,13.41,3.41,26.87,5.13,40.31l4.39,40.4
			c1.28,13.49,2.53,26.98,3.36,40.52l-2.2,0.26c-2.32-13.37-4.21-26.78-6.08-40.2l-5.05-40.32c-1.42-13.47-3.06-26.91-4.31-40.41
			c-1.31-13.48-2.55-26.98-3.44-40.51L1689.75,549.11z"/>
		<path class="st1" d="M1308.84,546.93c-0.03,15.02-0.4,30.02-0.84,45.02c-0.38,15-1.15,29.99-1.71,44.98l-2.46,44.94
			c-1,14.97-2.03,29.94-3.49,44.89l-2.21-0.1c-0.04-15.02,0.35-30.02,0.76-45.02l1.79-44.97c0.86-14.98,1.5-29.97,2.54-44.94
			c0.97-14.97,2.02-29.94,3.41-44.9L1308.84,546.93z"/>
		<path class="st3" d="M1492.35,276.6c1.2,5.34-1,10.38-4.91,11.26c-3.91,0.88-8.05-2.74-9.25-8.09c-1.2-5.34,1-10.38,4.91-11.26
			C1487.01,267.63,1491.15,271.25,1492.35,276.6z"/>
		<path class="st3" d="M1548.81,269.99c-0.23,5.47-3.67,9.77-7.67,9.6c-4-0.17-7.06-4.74-6.83-10.21c0.23-5.47,3.67-9.77,7.67-9.6
			C1545.98,259.95,1549.04,264.52,1548.81,269.99z"/>
		<path class="st2" d="M1517.33,274.48c1.94,4.68,1.63,9.73,2.89,13.56c0.64,1.94,1.52,3.65,2.74,4.71
			c1.14,1.04,2.98,1.71,5.32,2.61c2.41,0.93,4.96,2.59,6.71,5.06c1.85,2.4,2.36,6.55,0.69,9.27c-1.51,2.72-3.67,4.21-5.53,5.6
			c-1.94,1.31-3.81,2.71-5.83,3.93l-1.46-1.67c1.49-1.83,3.12-3.5,4.68-5.25c1.61-1.66,3.09-3.27,3.66-4.77
			c1.2-2.62-1.37-5.49-5.09-6.97c-1.92-0.87-4.68-1.64-6.9-3.92c-2.15-2.19-3.21-4.93-3.63-7.49c-0.94-5.25,0.13-9.74-0.37-14.1
			L1517.33,274.48z"/>
		<path class="st3" d="M1465.33,262.26c0.83-3.36,2.88-6.54,5.78-8.83c2.85-2.37,6.58-3.65,10.27-3.84
			c7.44-0.45,14.8,3.78,17.86,10.03l-1.73,1.38c-4.92-3.86-10.33-5.98-15.85-5.78c-5.54,0.15-10.56,2.99-14.32,7.98L1465.33,262.26z
			"/>
		<path class="st3" d="M1523.79,255.32c0.84-2.62,2.31-5.11,4.45-7.16c2.09-2.1,5.01-3.48,8.04-3.98
			c6.08-1.01,12.62,2.09,15.02,7.49l-1.77,1.33c-3.98-2.67-8.32-3.81-12.42-3.25c-2.05,0.27-3.99,1.04-5.92,2.16
			c-1.89,1.18-3.61,2.79-5.49,4.52L1523.79,255.32z"/>
		<path class="st5" d="M1492.45,329.34c9.89,15.48,23.07,17.16,33.24,0.87L1492.45,329.34z"/>
		<path class="st13" d="M1560.73,281.13c-0.06,10.88-1,26.04-2.81,36.91c-6.85-2.21-11.84-8.61-11.84-16.26
			C1546.08,293.24,1552.63,282.44,1560.73,281.13z"/>
		<circle class="st13" cx="1468.31" cy="311.91" r="18.27"/>
		<path class="st2" d="M1411.64,296.2c-3.61-2.45-6.92-5.13-10.21-6.72c-1.63-0.8-3.15-1.29-4.51-1.17c-1.37,0.1-2.94,0.9-4.71,2.16
			l-1.86-1.2c0.77-2.26,2.4-4.8,5.38-5.79c2.96-1.03,5.97-0.2,8.2,0.95c4.51,2.46,7.6,6.09,9.47,10.44L1411.64,296.2z"/>
		<path class="st14" d="M900.24,822.54l-26.29,79.88L868.52,840C884.86,836.44,893.78,829.9,900.24,822.54z"/>
	</g>
</g>
</svg>
